# xmcd CD database file
#
# Track frame offsets:
#	150
#	19160
#	36886
#	53691
#	74371
#	96273
#	117124
#
# Disc length: 1842 seconds
#
# Revision: 1
# Processed by: cddbd v1.5PL3 Copyright (c) Steve Scherf et al.
# Submitted via: CDex 1.51
#
DISCID=57073007
DTITLE=Yanni - Someday
DYEAR=1999
DGENRE=New Age
TTITLE0=Within Attraction
TTITLE1=Enchantment
TTITLE2=A Word in Private
TTITLE3=Before I Go
TTITLE4=Felitsa
TTITLE5=Someday
TTITLE6=The Rain Must Fall
EXTD=YEAR: 1999
EXTT0=
EXTT1=
EXTT2=
EXTT3=
EXTT4=
EXTT5=
EXTT6=
PLAYORDER=
